<?xml version="1.0" encoding="UTF-8"?>
<svg width="400" height="300" viewBox="0 0 400 300" fill="none" xmlns="http://www.w3.org/2000/svg">
  <!-- Calendar -->
  <rect x="50" y="50" width="300" height="200" fill="#4A4A4A" rx="10"/>
  
  <!-- Days -->
  <rect x="70" y="80" width="40" height="40" fill="#6A6A6A" rx="5"/>
  <rect x="120" y="80" width="40" height="40" fill="#6A6A6A" rx="5"/>
  <rect x="170" y="80" width="40" height="40" fill="#6A6A6A" rx="5"/>
  <rect x="220" y="80" width="40" height="40" fill="#6A6A6A" rx="5"/>
  <rect x="270" y="80" width="40" height="40" fill="#6A6A6A" rx="5"/>
  
  <!-- Checkmarks -->
  <path d="M85 100 L95 110 L115 90" stroke="#4CAF50" stroke-width="3" fill="none"/>
  <path d="M135 100 L145 110 L165 90" stroke="#4CAF50" stroke-width="3" fill="none"/>
  <path d="M185 100 L195 110 L215 90" stroke="#4CAF50" stroke-width="3" fill="none"/>
  <path d="M235 100 L245 110 L265 90" stroke="#4CAF50" stroke-width="3" fill="none"/>
  <path d="M285 100 L295 110 L315 90" stroke="#4CAF50" stroke-width="3" fill="none"/>
  
  <!-- Clock -->
  <circle cx="200" cy="250" r="30" fill="#4A4A4A"/>
  <line x1="200" y1="250" x2="200" y2="230" stroke="white" stroke-width="2"/>
  <line x1="200" y1="250" x2="220" y2="250" stroke="white" stroke-width="2"/>
</svg> 